<svg width="160" height="52" viewBox="0 0 160 52" fill="none" xmlns="http://www.w3.org/2000/svg">
  <rect width="160" height="52" rx="14" fill="#0C0C0C"/>
  <path d="M22 35V17H36.5V20.5H26.3V24.5H35.6V28H26.3V35H22Z" fill="#C8A45C"/>
  <path d="M46.2 35.3C42.3 35.3 39.1 32.5 39.1 28.4C39.1 24.3 42.2 21.4 46.1 21.4C50.1 21.4 53.1 24.1 53.1 28.7V29.8H43.4C43.9 31.5 45.2 32.4 46.9 32.4C48.2 32.4 49.2 31.9 49.9 31L52.5 33.1C51.2 34.7 49.1 35.3 46.2 35.3Z" fill="#F4EFE6"/>
  <path d="M45.9 24.2C44.4 24.2 43.3 25.1 43 26.7H49C48.8 25.1 47.7 24.2 45.9 24.2Z" fill="#F4EFE6"/>
  <path d="M60.7 35L55 21.7H59.5L62.9 30.3L66.2 21.7H70.5L64.9 35H60.7Z" fill="#F4EFE6"/>
  <path d="M72.6 35V21.7H76.8V35H72.6ZM74.7 20.1C73.2 20.1 72.1 19 72.1 17.6C72.1 16.2 73.2 15.1 74.7 15.1C76.1 15.1 77.2 16.2 77.2 17.6C77.2 19 76.1 20.1 74.7 20.1Z" fill="#F4EFE6"/>
  <path d="M88.4 35.3C84.5 35.3 81.3 32.5 81.3 28.4C81.3 24.3 84.4 21.4 88.3 21.4C92.3 21.4 95.3 24.1 95.3 28.7V29.8H85.6C86.1 31.5 87.4 32.4 89.1 32.4C90.4 32.4 91.4 31.9 92.1 31L94.7 33.1C93.4 34.7 91.3 35.3 88.4 35.3Z" fill="#F4EFE6"/>
  <path d="M88.1 24.2C86.6 24.2 85.5 25.1 85.2 26.7H91.2C91 25.1 89.9 24.2 88.1 24.2Z" fill="#F4EFE6"/>
  <path d="M100.7 35L96.6 21.7H100.9L103 29.4L105.5 21.7H109L111.5 29.4L113.6 21.7H117.8L113.7 35H109.8L107.2 27.5L104.5 35H100.7Z" fill="#F4EFE6"/>
  <path d="M125.2 35.3C122.5 35.3 120.1 34.6 118.6 33.2L120.6 30.6C122 31.7 123.6 32.3 125.2 32.3C126.4 32.3 127.1 31.9 127.1 31.2C127.1 30.4 126.2 30.2 124.5 29.8C121.6 29.2 119.1 28.5 119.1 25.5C119.1 22.9 121.4 21.4 124.9 21.4C127.1 21.4 129.1 22 130.5 23.1L128.6 25.8C127.3 24.9 126 24.4 124.7 24.4C123.7 24.4 123.1 24.8 123.1 25.4C123.1 26.2 124 26.4 125.8 26.8C128.8 27.4 131 28.2 131 31.1C131 34 128.5 35.3 125.2 35.3Z" fill="#C8A45C"/>
</svg>
