<svg width="960" height="720" viewBox="0 0 960 720" fill="none" xmlns="http://www.w3.org/2000/svg">
  <rect width="960" height="720" rx="36" fill="#0D0D0D"/>
  <circle cx="736" cy="162" r="140" fill="#C8A45C" fill-opacity="0.12"/>
  <rect x="68" y="86" width="142" height="14" rx="7" fill="#C8A45C"/>
  <rect x="68" y="130" width="428" height="82" rx="22" fill="#F4EFE6" fill-opacity="0.1"/>
  <rect x="68" y="236" width="348" height="16" rx="8" fill="#F4EFE6" fill-opacity="0.28"/>
  <rect x="68" y="266" width="312" height="16" rx="8" fill="#F4EFE6" fill-opacity="0.18"/>
  <rect x="68" y="402" width="382" height="238" rx="30" fill="#F4EFE6" fill-opacity="0.08"/>
  <rect x="478" y="218" width="414" height="422" rx="34" fill="url(#paint0_linear)"/>
  <rect x="528" y="268" width="314" height="20" rx="10" fill="#F4EFE6" fill-opacity="0.62"/>
  <rect x="528" y="312" width="220" height="16" rx="8" fill="#F4EFE6" fill-opacity="0.28"/>
  <rect x="528" y="410" width="132" height="132" rx="24" fill="#C8A45C" fill-opacity="0.14"/>
  <rect x="684" y="410" width="132" height="132" rx="24" fill="#F4EFE6" fill-opacity="0.1"/>
  <defs>
    <linearGradient id="paint0_linear" x1="510" y1="242" x2="852" y2="614" gradientUnits="userSpaceOnUse">
      <stop stop-color="#1D1813"/>
      <stop offset="1" stop-color="#151515"/>
    </linearGradient>
  </defs>
</svg>
